External Loads File
version=1
nRows=70
nColumns=13
Range=5.000000e-03-10 seconds
endheader
time 	forceRightX 	forceRightY 	forceRightZ 	pointRightX 	pointRightY 	pointRightZ 	forceLeftX 	forceLeftY 	forceLeftZ 	pointLeftX 	pointLeftY 	pointLeftZ 		
7.505000 71.082190 533.653378 -0.000000 0.231358 0.164086 -0.102897 0.061145 -71.928876 -0.000000 0.137652 0.466935 -0.341769
7.510000 90.546127 513.372564 -0.000000 0.222256 0.160040 -0.102728 -23.215757 -91.833439 -0.000000 0.148129 0.471319 -0.341877
7.515000 108.278156 491.300417 -0.000000 0.212751 0.156575 -0.102559 -47.073824 -111.826485 -0.000000 0.158199 0.475099 -0.341466
7.520000 125.228375 467.523694 -0.000000 0.203003 0.153830 -0.102513 -70.915939 -131.025901 -0.000000 0.168674 0.478459 -0.341473
7.525000 139.656623 442.674452 -0.000000 0.193077 0.151784 -0.102464 -93.405073 -148.598556 -0.000000 0.178595 0.481327 -0.341578
7.530000 151.989922 416.777554 -0.000000 0.183057 0.150331 -0.102479 -113.725546 -163.294178 -0.000000 0.188537 0.483736 -0.341386
7.535000 161.762059 389.998213 -0.000000 0.173102 0.149622 -0.102593 -130.894802 -173.972518 -0.000000 0.198467 0.485474 -0.341153
7.540000 168.496055 362.490302 -0.000000 0.163315 0.149567 -0.102689 -144.022465 -179.753121 -0.000000 0.208204 0.486571 -0.340920
7.545000 172.280473 334.174465 -0.000000 0.153671 0.150221 -0.102766 -152.683812 -179.988844 -0.000000 0.217781 0.486890 -0.340971
7.550000 172.914479 305.172302 -0.000000 0.144386 0.151436 -0.102825 -156.614295 -174.704181 -0.000000 0.227155 0.486528 -0.340996
7.555000 170.767401 275.429357 -0.000000 0.135382 0.153451 -0.102791 -156.229839 -164.232319 -0.000000 0.236286 0.485492 -0.341232
7.560000 166.033718 245.134308 -0.000000 0.126619 0.156096 -0.102643 -152.239727 -149.424291 -0.000000 0.244929 0.483619 -0.341417
7.565000 159.220093 214.484451 -0.000000 0.118184 0.159380 -0.102558 -145.830792 -131.182741 -0.000000 0.253319 0.481071 -0.342006
7.570000 150.731827 183.980827 -0.000000 0.109935 0.163401 -0.102636 -138.240440 -110.483907 -0.000000 0.261183 0.477836 -0.342613
7.575000 140.994842 154.350348 -0.000000 0.102002 0.167938 -0.102740 -130.630321 -88.172709 -0.000000 0.268631 0.474089 -0.343289
7.580000 130.681541 126.236009 -0.000000 0.094392 0.173106 -0.102765 -124.060562 -64.699537 -0.000000 0.275623 0.469328 -0.344160
7.585000 120.191628 100.525382 -0.000000 0.086957 0.178742 -0.102820 -119.120521 -40.579202 -0.000000 0.282043 0.464188 -0.344965
7.590000 110.219327 77.614322 -0.000000 0.079722 0.185003 -0.102942 -116.227281 -15.894660 -0.000000 0.287911 0.457813 -0.346002
7.595000 101.006941 58.108844 -0.000000 0.072751 0.191755 -0.102978 -115.369127 8.883344 -0.000000 0.293222 0.450992 -0.346758
7.600000 92.780035 42.304874 -0.000000 0.066085 0.198923 -0.103014 -116.479953 33.427149 -0.000000 0.297661 0.443884 -0.347198
7.605000 85.679229 30.162136 -0.000000 0.059802 0.206455 -0.103027 -119.478738 57.802198 -0.000000 0.301356 0.436456 -0.347487
7.610000 79.668274 21.432608 -0.000000 0.053970 0.214424 -0.102989 -124.339712 82.497518 -0.000000 0.304523 0.428695 -0.347556
7.615000 74.561993 15.728499 -0.000000 0.048643 0.222801 -0.102912 -131.174618 108.346747 -0.000000 0.307262 0.420501 -0.347582
7.620000 70.108884 12.517375 -0.000000 0.043698 0.231637 -0.102885 -140.086106 136.451394 -0.000000 0.309540 0.411663 -0.347582
7.625000 66.032922 11.271299 -0.000000 0.039218 0.240931 -0.102789 -151.094030 167.788388 -0.000000 0.311444 0.402102 -0.347798
7.630000 62.087404 11.561688 -0.000000 0.035251 0.250433 -0.102760 -164.102309 202.886073 -0.000000 0.313026 0.391783 -0.348288
7.635000 58.144445 13.070107 -0.000000 0.031663 0.260303 -0.102821 -178.659162 241.831698 -0.000000 0.314369 0.381005 -0.348501
7.640000 54.291496 15.665633 -0.000000 0.028613 0.270628 -0.102911 -194.009443 284.177188 -0.000000 0.315603 0.369907 -0.348494
7.645000 50.860293 19.429760 -0.000000 0.026193 0.280962 -0.103055 -209.625291 328.721429 -0.000000 0.316815 0.358574 -0.348813
7.650000 48.386810 24.410495 -0.000000 0.024380 0.291550 -0.103263 -224.772060 374.094655 -0.000000 0.317747 0.347356 -0.349055
7.655000 47.431065 30.524180 -0.000000 0.023287 0.302202 -0.103393 -238.572491 418.977032 -0.000000 0.318234 0.336031 -0.349490
7.660000 48.334008 37.557842 -0.000000 0.022841 0.312890 -0.103563 -250.703063 461.963527 -0.000000 0.318288 0.324924 -0.349503
7.665000 51.192463 45.058733 -0.000000 0.023188 0.323638 -0.103664 -260.308862 502.350132 -0.000000 0.317751 0.313889 -0.349487
7.670000 55.785336 52.524291 -0.000000 0.024189 0.334361 -0.103735 -266.967339 539.582233 -0.000000 0.316809 0.302944 -0.349279
7.675000 61.645193 59.452882 -0.000000 0.025861 0.344953 -0.103580 -270.397744 573.341126 -0.000000 0.315484 0.292069 -0.349597
7.680000 68.178887 65.363071 -0.000000 0.028149 0.355491 -0.103691 -270.096331 603.639087 -0.000000 0.313483 0.281335 -0.349523
7.685000 74.729688 69.852248 -0.000000 0.031167 0.365954 -0.103889 -265.557478 630.626435 -0.000000 0.310988 0.270666 -0.349437
7.690000 80.500685 72.795125 -0.000000 0.034648 0.376174 -0.104071 -257.644858 653.959772 -0.000000 0.308045 0.260382 -0.348972
7.695000 84.950503 73.996735 -0.000000 0.038802 0.386169 -0.104073 -245.703957 673.990168 -0.000000 0.304502 0.250352 -0.348587
7.700000 87.592379 73.393825 -0.000000 0.043471 0.395977 -0.104115 -229.695566 690.799194 -0.000000 0.300417 0.240515 -0.348360
7.705000 87.950075 71.080310 -0.000000 0.048694 0.405554 -0.104447 -210.636166 704.138703 -0.000000 0.295945 0.231215 -0.347704
7.710000 85.877564 66.920157 -0.000000 0.054708 0.415015 -0.104655 -187.620165 714.412460 -0.000000 0.290925 0.222103 -0.347399
7.715000 81.107954 61.124872 -0.000000 0.061241 0.424125 -0.104808 -162.367635 721.292422 -0.000000 0.285564 0.213252 -0.347011
7.720000 73.561327 53.869669 -0.000000 0.068127 0.432727 -0.104424 -136.279935 724.702125 -0.000000 0.279725 0.204869 -0.346664
7.725000 63.416848 45.142720 -0.000000 0.075804 0.440942 -0.104947 -108.791340 724.976178 -0.000000 0.273509 0.196799 -0.346409
7.730000 50.856901 35.108656 -0.000000 0.084465 0.448546 -0.104879 -80.646096 722.124901 -0.000000 0.266878 0.189222 -0.346176
7.735000 36.187003 23.986605 -0.000000 0.092570 0.456054 -0.105357 -54.006644 716.077529 -0.000000 0.259862 0.182047 -0.345515
7.740000 20.015395 11.743006 -0.000000 0.101545 0.462652 -0.105461 -28.063915 707.101165 -0.000000 0.252423 0.175502 -0.345378
7.745000 2.953761 -1.539919 -0.000000 0.110857 0.469160 -0.105846 -2.649264 695.242497 -0.000000 0.244622 0.169290 -0.345164
7.750000 -14.377623 -15.654801 -0.000000 0.120457 0.474969 -0.106084 21.113078 680.487150 -0.000000 0.236431 0.163629 -0.345247
7.755000 -31.333793 -30.235707 -0.000000 0.130139 0.480183 -0.106324 42.761797 662.914902 -0.000000 0.227977 0.158558 -0.345222
7.760000 -47.353584 -44.599457 -0.000000 0.139845 0.484954 -0.106567 62.957529 642.597817 -0.000000 0.218760 0.154447 -0.346377
7.765000 -61.725140 -58.085576 -0.000000 0.149394 0.488938 -0.106828 79.488035 619.974641 -0.000000 0.210323 0.150193 -0.345408
7.770000 -74.127451 -69.666632 -0.000000 0.158958 0.492562 -0.107147 94.773064 595.122453 -0.000000 0.201150 0.147216 -0.345499
7.775000 -84.138099 -78.660854 -0.000000 0.168419 0.495483 -0.107480 108.334204 568.458776 -0.000000 0.191691 0.144677 -0.345510
7.780000 -91.520880 -84.564187 -0.000000 0.177860 0.497902 -0.107742 120.314070 540.348249 -0.000000 0.182024 0.142856 -0.345454
7.785000 -96.224827 -87.079214 -0.000000 0.187345 0.499665 -0.108044 130.834137 511.091787 -0.000000 0.172211 0.141784 -0.345444
7.790000 -98.314448 -86.134053 -0.000000 0.196785 0.500739 -0.108350 139.663266 480.971397 -0.000000 0.162372 0.141309 -0.345347
7.795000 -97.975821 -81.834995 -0.000000 0.206016 0.500922 -0.108396 146.424759 450.215064 -0.000000 0.152655 0.141596 -0.345173
7.800000 -95.585096 -74.380554 -0.000000 0.214998 0.500520 -0.108318 150.963877 418.905709 -0.000000 0.143133 0.142522 -0.344925
7.805000 -91.661740 -64.083195 -0.000000 0.223645 0.499371 -0.108163 153.164598 387.094659 -0.000000 0.133856 0.144168 -0.344741
7.810000 -86.836695 -51.334572 -0.000000 0.231819 0.497530 -0.107985 152.961251 354.902257 -0.000000 0.124842 0.146536 -0.344434
7.815000 -81.836010 -36.502436 -0.000000 0.239533 0.495019 -0.107779 150.593293 322.479140 -0.000000 0.116014 0.149556 -0.344073
7.820000 -77.333184 -20.055111 -0.000000 0.246768 0.491864 -0.107483 146.031157 290.293711 -0.000000 0.107701 0.153218 -0.343774
7.825000 -73.991285 -2.239688 -0.000000 0.253583 0.487769 -0.107093 140.096059 258.597809 -0.000000 0.099570 0.157573 -0.343488
7.830000 -72.262944 16.649893 -0.000000 0.259963 0.482902 -0.106478 133.099914 228.028622 -0.000000 0.091703 0.162580 -0.343230
7.835000 -72.452185 36.515193 -0.000000 0.265998 0.477273 -0.105798 125.535798 199.216361 -0.000000 0.084085 0.168029 -0.342935
7.840000 -74.763995 57.402941 -0.000000 0.271475 0.470818 -0.105220 117.793141 172.874222 -0.000000 0.076820 0.174074 -0.342640
7.845000 -79.327485 79.576441 -0.000000 0.276640 0.464149 -0.104713 110.332804 149.627386 -0.000000 0.069773 0.180657 -0.342226
7.850000 -86.247062 103.367144 -0.000000 0.281310 0.456777 -0.104322 103.527171 130.015165 -0.000000 0.063216 0.187666 -0.341398
